<svg width="151" height="151" viewBox="0 0 151 151" fill="none" xmlns="http://www.w3.org/2000/svg">
<path d="M75.4589 150.516C116.852 150.516 150.408 116.96 150.408 75.5671C150.408 34.1738 116.852 0.61792 75.4589 0.61792C34.0656 0.61792 0.509766 34.1738 0.509766 75.5671C0.509766 116.96 34.0656 150.516 75.4589 150.516Z" fill="#1D011D"/>
<path fill-rule="evenodd" clip-rule="evenodd" d="M63.3768 35.3901H87.2857C97.5586 35.3901 105.964 43.7959 105.964 54.0679C105.964 64.9437 107.291 79.6039 94.933 84.6093C91.358 86.058 87.0591 86.9325 82.3762 87.0967C79.454 87.1994 74.6376 84.7485 73.5164 87.2627L63.2261 110.349C62.2124 112.623 56.8969 116.215 52.4137 115.692C48.6553 115.253 45.5333 111.078 45.5103 108.99C45.3116 90.6122 45.1109 72.233 44.9122 53.8548C44.8018 43.6999 53.221 35.3892 63.3768 35.3892V35.3901Z" fill="#800080"/>
<path fill-rule="evenodd" clip-rule="evenodd" d="M66.7512 46.8458H82.8053C89.7029 46.8458 95.3467 51.8964 95.3467 58.0692C95.3467 64.6039 96.2376 73.4129 87.9403 76.4215C85.5393 77.2922 82.6536 77.8173 79.5086 77.9162C77.5464 77.9776 74.3122 76.505 73.5595 78.016L66.6504 91.888C65.9697 93.2551 62.4005 95.4132 59.3899 95.0983C56.8661 94.8343 54.7694 92.3258 54.755 91.0711C54.6206 80.0273 54.4872 68.9844 54.3528 57.9405C54.2788 51.8388 59.9323 46.8448 66.7512 46.8448V46.8458Z" fill="#FFBDFF"/>
<path d="M74.8631 70.8852C78.9344 70.8852 82.2349 67.5847 82.2349 63.5133C82.2349 59.442 78.9344 56.1415 74.8631 56.1415C70.7917 56.1415 67.4912 59.442 67.4912 63.5133C67.4912 67.5847 70.7917 70.8852 74.8631 70.8852Z" fill="#FFEEFF"/>
<path fill-rule="evenodd" clip-rule="evenodd" d="M77.4026 63.5134L74.8634 64.9803L72.3232 66.4462V63.5134V60.5806L74.8634 62.0474L77.4026 63.5134Z" stroke="#800080" stroke-width="1.47936" stroke-miterlimit="2.61313" stroke-linecap="round" stroke-linejoin="round"/>
<path fill-rule="evenodd" clip-rule="evenodd" d="M77.4026 63.5134L74.8634 64.9803L72.3232 66.4462V63.5134V60.5806L74.8634 62.0474L77.4026 63.5134Z" fill="#800080"/>
</svg>
