<svg width="22" height="22" viewBox="0 0 22 22" fill="none" xmlns="http://www.w3.org/2000/svg">
<g id="teenyicons:arrow-outline" clip-path="url(#clip0_951_2927)">
<path id="Vector" d="M20.5063 10.6066L20.8598 10.9602C20.9536 10.8664 21.0063 10.7392 21.0063 10.6066C21.0063 10.474 20.9536 10.3468 20.8598 10.253L20.5063 10.6066ZM17.6778 7.77817L18.0314 7.42462C17.9615 7.35447 17.8724 7.30666 17.7753 7.28725C17.6782 7.26783 17.5775 7.27768 17.486 7.31555C17.3945 7.35342 17.3163 7.4176 17.2613 7.49996C17.2064 7.58232 17.1771 7.67915 17.1772 7.77817L17.6778 7.77817ZM17.6778 13.435L17.1772 13.435C17.1771 13.534 17.2064 13.6309 17.2613 13.7132C17.3163 13.7956 17.3945 13.8598 17.486 13.8976C17.5775 13.9355 17.6782 13.9454 17.7753 13.926C17.8724 13.9065 17.9615 13.8587 18.0314 13.7886L17.6778 13.435ZM17.6778 10.106H0.707281V11.1072H17.6778V10.106ZM20.8598 10.253L18.0314 7.42462L17.3243 8.13172L20.1527 10.9602L20.8598 10.253ZM17.1772 7.77817V13.435L18.1785 13.435V7.77817L17.1772 7.77817ZM18.0314 13.7886L20.8598 10.9602L20.1527 10.253L17.3243 13.0815L18.0314 13.7886Z" fill="#FFEEFF"/>
</g>
<defs>
<clipPath id="clip0_951_2927">
<rect width="15" height="15" fill="white" transform="translate(21.2134 10.6066) rotate(135)"/>
</clipPath>
</defs>
</svg>
