<svg width="38" height="27" viewBox="0 0 38 27" fill="none" xmlns="http://www.w3.org/2000/svg">
<g id="Link - instagram &#226;&#143;&#181; SVG">
<path id="Vector" fill-rule="evenodd" clip-rule="evenodd" d="M29.7261 18.13C29.7567 19.8343 29.1308 21.4834 27.9816 22.7257C26.7612 23.8979 25.1352 24.5344 23.4558 24.4975C21.6725 24.6006 16.3268 24.6006 14.5446 24.4975C12.8663 24.5283 11.2425 23.8926 10.0188 22.7257C8.86574 21.4859 8.23916 19.8352 8.27432 18.13C8.17386 16.3187 8.17386 10.8893 8.27432 9.0791C8.24142 7.37408 8.86767 5.72385 10.0188 4.48232C11.2422 3.31559 12.8667 2.6816 14.5446 2.71602C16.3279 2.61289 21.6735 2.61289 23.4558 2.71602C25.1342 2.68414 26.7585 3.31999 27.9816 4.48781C29.1347 5.72765 29.7613 7.37838 29.7261 9.08349C29.8265 10.8948 29.8265 16.3187 29.7261 18.13ZM27.8574 13.6067C27.8574 12.0105 27.987 8.58431 27.4253 7.14055C27.0552 6.18695 26.312 5.43212 25.3731 5.05609C23.9559 4.4889 20.5783 4.61726 19.0066 4.61726C17.435 4.61726 14.0618 4.48451 12.6403 5.05609C11.7016 5.43245 10.9585 6.18718 10.588 7.14055C10.0296 8.57993 10.1559 12.0105 10.1559 13.6067C10.1559 15.203 10.0252 18.6292 10.588 20.0729C10.9589 21.0262 11.7018 21.7808 12.6403 22.1574C14.0574 22.7246 17.4361 22.5962 19.0066 22.5962C20.5772 22.5962 23.9516 22.729 25.3731 22.1574C26.3118 21.7811 27.0548 21.0264 27.4253 20.0729C27.9859 18.6336 27.8574 15.203 27.8574 13.6067ZM24.5413 13.6067C24.5413 16.7128 22.0626 19.2309 19.0045 19.2315C15.9464 19.2321 13.4667 16.715 13.4655 13.6089C13.4643 10.5029 15.9421 7.98384 19.0002 7.982C20.47 7.9791 21.8805 8.5707 22.92 9.62612C23.9596 10.6815 24.5437 12.1139 24.5413 13.6067ZM22.6035 13.6067C22.6035 11.5878 20.9924 9.95079 19.0045 9.95018C17.0167 9.94958 15.4045 11.5856 15.4033 13.6045C15.4021 15.6236 17.0124 17.2615 19.0002 17.2633C20.9884 17.2621 22.6012 15.6261 22.6035 13.6067ZM24.7638 9.06375C24.048 9.06375 23.4677 8.47432 23.4677 7.74724C23.4677 7.02016 24.048 6.43074 24.7638 6.43074C25.4798 6.43074 26.0601 7.02016 26.0601 7.74724C26.0621 8.09645 25.9266 8.43201 25.6838 8.67924C25.441 8.92648 25.111 9.06491 24.7671 9.06375H24.7638Z" fill="#FFEEFF"/>
</g>
</svg>
