<svg width="12" height="12" viewBox="0 0 12 12" fill="none" xmlns="http://www.w3.org/2000/svg">
<g id="solar:like-bold-duotone">
<g id="Group">
<path id="Vector" d="M10.1351 8.13253L10.4876 6.09253C10.5083 5.97296 10.5026 5.85032 10.471 5.73318C10.4393 5.61604 10.3824 5.50723 10.3043 5.41437C10.2262 5.3215 10.1288 5.24682 10.0188 5.19555C9.90881 5.14427 9.78895 5.11765 9.66761 5.11753H7.07661C7.0162 5.11747 6.95652 5.10427 6.90172 5.07884C6.84692 5.05341 6.7983 5.01637 6.75925 4.97027C6.72019 4.92418 6.69164 4.87014 6.67555 4.8119C6.65947 4.75367 6.65625 4.69263 6.66611 4.63303L6.99761 2.61053C7.05144 2.28215 7.03611 1.94615 6.95261 1.62403C6.91685 1.49087 6.84799 1.36893 6.75244 1.26953C6.65689 1.17013 6.53775 1.09652 6.40611 1.05553L6.33361 1.03203C6.16985 0.979508 5.99219 0.991674 5.83711 1.06603C5.66711 1.14803 5.54311 1.29753 5.49711 1.47503L5.25911 2.39203C5.18334 2.68384 5.07324 2.96564 4.93111 3.23153C4.72311 3.62003 4.40211 3.93153 4.06861 4.21903L3.34861 4.83903C3.2488 4.92529 3.17084 5.03396 3.12113 5.15616C3.07141 5.27835 3.05136 5.41059 3.06261 5.54203L3.46911 10.2385C3.487 10.4461 3.58206 10.6395 3.73552 10.7805C3.88899 10.9215 4.08972 10.9998 4.29811 11H6.62261C8.36311 11 9.84861 9.78703 10.1346 8.13253H10.1351Z" fill="#FFEEFF"/>
<path id="Vector_2" opacity="0.5" fill-rule="evenodd" clip-rule="evenodd" d="M1.48404 4.74255C1.58067 4.73832 1.67519 4.7716 1.74787 4.83542C1.82054 4.89924 1.86575 4.98868 1.87404 5.08505L2.35904 10.703C2.36725 10.7867 2.35833 10.8712 2.33281 10.9513C2.30729 11.0314 2.26571 11.1054 2.21061 11.1689C2.15551 11.2324 2.08805 11.284 2.01234 11.3205C1.93663 11.357 1.85427 11.3778 1.77029 11.3814C1.68631 11.3851 1.60246 11.3715 1.52388 11.3417C1.44529 11.3118 1.37362 11.2663 1.31323 11.2078C1.25284 11.1493 1.20501 11.0791 1.17265 11.0016C1.1403 10.924 1.12409 10.8406 1.12504 10.7565V5.11705C1.12508 5.02039 1.16244 4.92748 1.22933 4.8577C1.29622 4.78792 1.38747 4.74667 1.48404 4.74255Z" fill="#FFEEFF"/>
</g>
</g>
</svg>
