<svg width="24" height="25" viewBox="0 0 24 25" fill="none" xmlns="http://www.w3.org/2000/svg">
<g id="solar:like-bold-duotone">
<g id="Group">
<path id="Vector" d="M20.27 16.765L20.975 12.685C21.0164 12.4459 21.005 12.2006 20.9417 11.9663C20.8783 11.732 20.7646 11.5144 20.6084 11.3287C20.4522 11.1429 20.2573 10.9936 20.0373 10.891C19.8174 10.7885 19.5777 10.7352 19.335 10.735H14.153C14.0322 10.7349 13.9128 10.7085 13.8032 10.6576C13.6936 10.6068 13.5964 10.5327 13.5183 10.4405C13.4401 10.3483 13.383 10.2402 13.3509 10.1237C13.3187 10.0073 13.3123 9.88521 13.332 9.766L13.995 5.721C14.1026 5.06424 14.072 4.39223 13.905 3.748C13.8335 3.48169 13.6957 3.23779 13.5046 3.039C13.3135 2.8402 13.0753 2.69297 12.812 2.611L12.667 2.564C12.3395 2.45896 11.9841 2.48329 11.674 2.632C11.334 2.796 11.086 3.095 10.994 3.45L10.518 5.284C10.3664 5.86762 10.1462 6.43122 9.86198 6.963C9.44598 7.74 8.80398 8.363 8.13698 8.938L6.69698 10.178C6.49735 10.3505 6.34143 10.5679 6.24201 10.8123C6.14258 11.0566 6.10248 11.3211 6.12498 11.584L6.93798 20.977C6.97375 21.3922 7.16387 21.779 7.4708 22.0609C7.77774 22.3429 8.1792 22.4995 8.59598 22.5H13.245C16.726 22.5 19.697 20.074 20.269 16.765H20.27Z" fill="#800080"/>
<path id="Vector_2" opacity="0.5" fill-rule="evenodd" clip-rule="evenodd" d="M2.96808 9.985C3.16134 9.97655 3.35039 10.0431 3.49574 10.1707C3.64109 10.2984 3.7315 10.4773 3.74808 10.67L4.71808 21.906C4.73451 22.0733 4.71666 22.2422 4.66562 22.4024C4.61458 22.5626 4.53142 22.7107 4.42122 22.8377C4.31102 22.9647 4.17609 23.0678 4.02468 23.1409C3.87327 23.214 3.70855 23.2555 3.54058 23.2627C3.37261 23.27 3.20492 23.243 3.04775 23.1833C2.89058 23.1236 2.74723 23.0325 2.62646 22.9155C2.50568 22.7985 2.41002 22.6582 2.3453 22.503C2.28059 22.3479 2.24819 22.1811 2.25008 22.013V10.734C2.25016 10.5407 2.32488 10.3549 2.45866 10.2153C2.59244 10.0758 2.77494 9.99325 2.96808 9.985Z" fill="#800080"/>
</g>
</g>
</svg>
