<svg width="169" height="23" viewBox="0 0 169 23" fill="none" xmlns="http://www.w3.org/2000/svg">
<path d="M6.2314 21.6607H0.835999V0.230347H6.85045C9.19934 0.230347 10.8504 0.345088 11.8037 0.580047C12.752 0.815007 13.5577 1.21458 14.2213 1.77906C14.9974 2.43349 15.5921 3.25282 15.9999 4.23158C16.4077 5.21581 16.6093 6.3047 16.6093 7.50371C16.6093 8.7823 16.4077 9.90636 16.005 10.8756C15.602 11.8497 15.0076 12.6437 14.2213 13.2684C13.6269 13.7378 12.9242 14.0725 12.1182 14.2775C11.3123 14.4822 10.02 14.5871 8.24623 14.5871H7.26845H6.23168L6.2314 21.6607ZM6.2314 9.88127H7.32715C8.7079 9.88127 9.67094 9.68668 10.2165 9.3018C10.7619 8.91722 11.0372 8.26279 11.0372 7.33362C11.0372 6.43443 10.767 5.79499 10.2313 5.41531C9.69561 5.03563 8.7425 4.84593 7.38132 4.84593H6.2314V9.88127ZM19.4051 0.230347H25.1249V10.6556C25.1249 12.1842 25.1641 13.2883 25.2378 13.9528C25.3163 14.622 25.4442 15.1816 25.6308 15.6313C25.8472 16.1756 26.2351 16.5953 26.7805 16.8848C27.3261 17.1696 27.9942 17.3146 28.7803 17.3146C29.5666 17.3146 30.2299 17.1696 30.7753 16.8848C31.3158 16.5951 31.704 16.1756 31.93 15.6313C32.1169 15.1816 32.2445 14.622 32.3233 13.9528C32.3971 13.2883 32.4362 12.1845 32.4362 10.6556V9.19225V0.230635H38.1557V11.5603C38.1557 13.9131 38.0182 15.6466 37.738 16.7654C37.4578 17.8794 36.9911 18.8334 36.3278 19.6279C35.6103 20.4922 34.6226 21.1464 33.3649 21.5811C32.107 22.0156 30.5838 22.2303 28.7905 22.2303C26.9821 22.2303 25.459 22.0153 24.2058 21.5811C22.9527 21.1464 21.9602 20.4919 21.2331 19.6279C20.5794 18.8334 20.1126 17.8794 19.8276 16.7654C19.5475 15.6466 19.4048 13.9131 19.4048 11.5603V9.33726V0.230635L19.4051 0.230347ZM42.5143 21.6607V0.230347H48.2044V9.96632L54.8674 0.230347H61.5599L53.7767 10.6807L62.2382 21.6607H55.0693L48.2047 12.0443V21.6607H42.5143ZM63.8937 21.6607V0.230347H69.5838V9.96632L76.2468 0.230347H82.9393L75.1561 10.6807L83.6176 21.6607H76.4484L69.5838 12.0443V21.6607H63.8937ZM90.3345 13.6579L88.0003 21.6607H83.6173L89.558 0.230347H96.7564L104.038 21.6607H99.9997L96.6237 13.4766L93.8619 6.78096C93.6339 6.02159 93.1694 5.3467 93.0265 4.75598C92.923 5.19765 92.6096 6.02015 92.452 6.58463L90.3345 13.6579ZM99.9997 21.6607L91.16 0.230347H96.7564L100.885 12.3808C100.924 12.5056 101.029 12.6823 101.152 13.1667C101.27 13.6513 101.753 14.6782 101.944 15.4972C102.097 14.8428 102.481 13.8424 102.619 13.318C102.751 12.7887 102.854 12.424 102.918 12.219L107.11 0.230347H113.213L104.373 21.6607H99.9997ZM115.07 21.6607V7.76202L120.878 7.79345V7.65478V21.6607H115.07ZM120.878 3.90091L115.07 3.87871V0.230347H120.878V3.90091ZM125.502 21.6607V0.230347H138.415V4.93588H131.104V8.65257H137.998V13.2382H131.104V16.8649H138.415V21.6607H125.502ZM156.571 0.230347L159.22 10.421C159.343 10.8756 159.461 11.3553 159.564 11.8546C159.672 12.3491 159.78 12.9236 159.898 13.568C160.041 12.8037 160.164 12.1793 160.262 11.6848C160.365 11.1904 160.463 10.7707 160.556 10.421L163.033 0.230347H168.836L162.875 21.6607H157.549L154.945 12.5091C154.847 12.1894 154.689 11.56 154.468 10.6207C154.375 10.201 154.296 9.87637 154.237 9.6417C154.193 9.84668 154.124 10.1361 154.036 10.506C153.815 11.4554 153.647 12.1193 153.535 12.5091L150.97 21.6607H145.628L139.678 0.230347H145.486L147.904 10.4757C148.021 11.0053 148.134 11.5297 148.243 12.0593C148.356 12.584 148.459 13.1286 148.552 13.683C148.641 13.2733 148.734 12.8438 148.832 12.3943C148.935 11.9446 149.087 11.3052 149.289 10.476L151.938 0.230635H156.571L156.571 0.230347Z" fill="#FFEEFF"/>
</svg>
