<svg width="169" height="22" viewBox="0 0 169 22" fill="none" xmlns="http://www.w3.org/2000/svg">
<path d="M5.89553 21.4303H0.5V0.000592166H6.51411C8.86273 0.000592166 10.5142 0.11537 11.4674 0.35023C12.4159 0.585091 13.2219 0.984399 13.8847 1.54877C14.6609 2.20307 15.2557 3.02243 15.6636 4.00151C16.0715 4.98532 16.2729 6.07443 16.2729 7.27358C16.2729 8.552 16.0715 9.67602 15.6682 10.6456C15.265 11.6194 14.6708 12.4139 13.8847 13.0386C13.2899 13.5077 12.5876 13.8426 11.7816 14.0479C10.9757 14.2525 9.68323 14.3573 7.90955 14.3573H6.93192H5.89495V21.4309L5.89553 21.4303ZM5.89553 9.65118H6.99128C8.37217 9.65118 9.33524 9.45596 9.8805 9.07142C10.4258 8.68689 10.701 8.03259 10.701 7.10321C10.701 6.20399 10.4304 5.56508 9.89505 5.18469C9.35968 4.80489 8.40651 4.61557 7.0454 4.61557H5.89553V9.65118ZM19.0695 0H24.7892V10.425C24.7892 11.9536 24.8288 13.0575 24.9021 13.7219C24.9807 14.391 25.1087 14.9506 25.2955 15.4002C25.5119 15.9445 25.9001 16.3645 26.4453 16.6538C26.9906 16.9384 27.6592 17.0833 28.4454 17.0833C29.2316 17.0833 29.895 16.9384 30.4402 16.6538C30.9808 16.3639 31.3689 15.9445 31.5947 15.4002C31.7815 14.9506 31.9095 14.391 31.9881 13.7219C32.0614 13.0575 32.101 11.9536 32.101 10.425V8.96138V0H37.8207V11.3295C37.8207 13.6823 37.6827 15.4156 37.4028 16.5343C37.1229 17.6483 36.6562 18.6025 35.9929 19.397C35.2754 20.2613 34.2878 20.9156 33.0297 21.3504C31.7716 21.7853 30.2482 22 28.4553 22C26.6473 22 25.1238 21.7853 23.8709 21.3504C22.6181 20.9156 21.6253 20.2613 20.8979 19.397C20.2444 18.6025 19.7777 17.6483 19.4926 16.5343C19.2127 15.4156 19.0701 13.6823 19.0701 11.3295V9.10691V0.000592166L19.0695 0ZM42.1786 21.4297V0H47.8686V9.73578L54.5316 0H61.2242L53.4411 10.4504L61.9027 21.4303H54.7335L47.8692 11.814V21.4303H42.1792L42.1786 21.4297ZM63.5583 21.4297V0H69.2483V9.73578L75.9112 0H82.6038L74.8207 10.4504L83.2823 21.4303H76.1131L69.2488 11.814V21.4303H63.5589L63.5583 21.4297ZM89.9988 13.4273H95.7133L93.566 6.35367C93.5026 6.13892 93.4089 5.79402 93.2954 5.31484C93.1778 4.83506 93.03 4.22098 92.8485 3.47144C92.7257 3.99618 92.6029 4.50021 92.4801 4.97999C92.362 5.45444 92.2392 5.91412 92.1164 6.35367L89.9988 13.4273ZM81.9451 21.4297L89.2226 0H96.4209L103.703 21.4297H97.9886L95.7133 13.4273H89.9988L87.6653 21.4297H81.9451ZM99.6639 21.4297L90.824 0H96.9266L101.143 11.9885C101.182 12.1134 101.26 12.418 101.383 12.9026C101.501 13.3871 101.658 14.0366 101.85 14.856C102.002 14.2017 102.145 13.6125 102.282 13.0877C102.415 12.5582 102.518 12.1938 102.582 11.9885L106.773 0H112.876L104.036 21.4297H99.6627H99.6639ZM114.734 21.4297V7.53152L120.542 7.56287V3.67022L114.734 3.64834V0H120.542V21.4297H114.734ZM125.166 21.4297V0H138.08V4.7055H130.769V8.42245H137.663V13.0084H130.769V16.6349H138.08V21.4303L125.166 21.4297ZM156.236 0L158.884 10.1907C159.007 10.6456 159.125 11.1248 159.228 11.6247C159.337 12.1193 159.444 12.6937 159.562 13.338C159.705 12.5736 159.828 11.9489 159.926 11.4549C160.029 10.9604 160.127 10.5409 160.221 10.1913L162.697 0.000592166H168.5L162.539 21.4303H157.213L154.609 12.279C154.51 11.9596 154.353 11.3301 154.132 10.3907C154.038 9.97123 153.96 9.64645 153.901 9.41159C153.857 9.61628 153.788 9.90615 153.7 10.2759C153.478 11.2248 153.311 11.8892 153.199 12.279L150.633 21.4303H145.292L139.341 0.000592166H145.149L147.567 10.2463C147.685 10.7758 147.798 11.2999 147.906 11.83C148.019 12.3547 148.122 12.899 148.216 13.4533C148.304 13.0434 148.397 12.6139 148.495 12.1642C148.598 11.7146 148.751 11.0751 148.952 10.2457L151.601 0H156.234H156.236Z" fill="#800080"/>
</svg>
