<svg width="232" height="305" viewBox="0 0 232 305" fill="none" xmlns="http://www.w3.org/2000/svg">
<path fill-rule="evenodd" clip-rule="evenodd" d="M70.0223 0.294945H160.687C199.642 0.294945 231.516 32.1665 231.516 71.1244C231.516 112.366 236.546 167.956 189.687 186.938C176.128 192.431 159.828 195.749 142.072 196.372C130.99 196.761 112.726 187.465 108.476 197.001L69.454 284.545C65.6089 293.168 45.4513 306.788 28.4521 304.805C14.1993 303.141 2.36089 287.308 2.27467 279.391C1.5178 209.698 0.760933 140.006 0.00406497 70.3133C-0.414288 31.8024 31.5147 0.291748 70.0255 0.291748L70.0223 0.294945Z" fill="#FFEEFF"/>
<path fill-rule="evenodd" clip-rule="evenodd" d="M82.817 43.7368H143.695C169.854 43.7368 191.254 62.8885 191.254 86.2971C191.254 111.079 194.632 144.483 163.166 155.891C154.062 159.19 143.117 161.182 131.196 161.559C123.755 161.792 111.492 156.207 108.637 161.936L82.437 214.54C79.8567 219.72 66.3224 227.905 54.9056 226.714C45.3345 225.714 37.3858 216.201 37.3283 211.442C36.8205 169.565 36.3128 127.689 35.805 85.8117C35.5239 62.6713 56.9622 43.7368 82.8202 43.7368H82.817Z" fill="#FFDAFF"/>
<path d="M113.575 134.897C129.013 134.897 141.528 122.382 141.528 106.944C141.528 91.506 129.013 78.991 113.575 78.991C98.1372 78.991 85.6222 91.506 85.6222 106.944C85.6222 122.382 98.1372 134.897 113.575 134.897Z" fill="#800080"/>
<path fill-rule="evenodd" clip-rule="evenodd" d="M123.208 106.943L113.576 112.503L103.948 118.063V106.943V95.8203L113.576 101.38L123.208 106.943Z" stroke="#FFEEFF" stroke-width="5.61105" stroke-miterlimit="2.61313" stroke-linecap="round" stroke-linejoin="round"/>
<path fill-rule="evenodd" clip-rule="evenodd" d="M123.208 106.943L113.576 112.503L103.948 118.063V106.943V95.8203L113.576 101.38L123.208 106.943Z" fill="#FFEEFF"/>
</svg>
