<svg width="24" height="25" viewBox="0 0 24 25" fill="none" xmlns="http://www.w3.org/2000/svg">
<g id="gg:menu-cake">
<path id="Vector" d="M12 16.5C11.4696 16.5 10.9609 16.7107 10.5858 17.0858C10.2107 17.4609 10 17.9696 10 18.5C10 19.0304 10.2107 19.5391 10.5858 19.9142C10.9609 20.2893 11.4696 20.5 12 20.5C12.5304 20.5 13.0391 20.2893 13.4142 19.9142C13.7893 19.5391 14 19.0304 14 18.5C14 17.9696 13.7893 17.4609 13.4142 17.0858C13.0391 16.7107 12.5304 16.5 12 16.5ZM19 14.5C19.2652 14.5 19.5196 14.3946 19.7071 14.2071C19.8946 14.0196 20 13.7652 20 13.5C20 13.2348 19.8946 12.9804 19.7071 12.7929C19.5196 12.6054 19.2652 12.5 19 12.5L5 12.5C4.73478 12.5 4.48043 12.6054 4.29289 12.7929C4.10536 12.9804 4 13.2348 4 13.5C4 13.7652 4.10536 14.0196 4.29289 14.2071C4.48043 14.3946 4.73478 14.5 5 14.5L19 14.5ZM20 9.5C20 9.76522 19.8946 10.0196 19.7071 10.2071C19.5196 10.3946 19.2652 10.5 19 10.5L5 10.5C4.73478 10.5 4.48043 10.3946 4.29289 10.2071C4.10536 10.0196 4 9.76522 4 9.5C4 9.23478 4.10536 8.98043 4.29289 8.79289C4.48043 8.60536 4.73478 8.5 5 8.5L19 8.5C19.2652 8.5 19.5196 8.60536 19.7071 8.79289C19.8946 8.98043 20 9.23478 20 9.5ZM19 6.5C19.2652 6.5 19.5196 6.39464 19.7071 6.20711C19.8946 6.01957 20 5.76522 20 5.5C20 5.23478 19.8946 4.98043 19.7071 4.79289C19.5196 4.60536 19.2652 4.5 19 4.5L5 4.5C4.73478 4.5 4.48043 4.60535 4.29289 4.79289C4.10536 4.98043 4 5.23478 4 5.5C4 5.76522 4.10536 6.01957 4.29289 6.20711C4.48043 6.39464 4.73478 6.5 5 6.5L19 6.5Z" fill="#800080"/>
</g>
</svg>
