<svg width="260" height="61" viewBox="0 0 260 61" fill="none" xmlns="http://www.w3.org/2000/svg">
<path fill-rule="evenodd" clip-rule="evenodd" d="M14.7763 0.000634155H32.7624C40.4903 0.000634155 46.8136 6.32333 46.8136 14.0518C46.8136 22.2333 47.8114 33.2613 38.5156 37.027C35.8256 38.1167 32.592 38.7749 29.0695 38.8985C26.8712 38.9758 23.248 37.1315 22.4047 39.0233L14.6636 56.3904C13.9008 58.101 9.90191 60.803 6.5296 60.4096C3.70212 60.0795 1.35361 56.9384 1.3365 55.3679C1.18636 41.5422 1.03621 27.7166 0.88606 13.8909C0.803067 6.2511 7.13715 0 14.777 0L14.7763 0.000634155Z" fill="#FFEEFF"/>
<path fill-rule="evenodd" clip-rule="evenodd" d="M17.3146 8.61865H29.3917C34.581 8.61865 38.8263 12.418 38.8263 17.0618C38.8263 21.978 39.4966 28.6048 33.2544 30.8678C31.4482 31.5222 29.277 31.9176 26.9121 31.9923C25.4359 32.0386 23.0031 30.9305 22.4368 32.0671L17.2392 42.5027C16.7273 43.5303 14.0424 45.154 11.7775 44.9177C9.87881 44.7194 8.30194 42.8321 8.29053 41.8882C8.1898 33.5806 8.08907 25.273 7.98833 16.9655C7.93258 12.3749 12.1855 8.61865 17.3153 8.61865H17.3146Z" fill="#FFDAFF"/>
<path d="M23.4164 26.703C26.479 26.703 28.9618 24.2203 28.9618 21.1576C28.9618 18.095 26.479 15.6123 23.4164 15.6123C20.3538 15.6123 17.8711 18.095 17.8711 21.1576C17.8711 24.2203 20.3538 26.703 23.4164 26.703Z" fill="#800080"/>
<path fill-rule="evenodd" clip-rule="evenodd" d="M25.3272 21.1575L23.4165 22.2605L21.5063 23.3635V21.1575V18.9509L23.4165 20.0539L25.3272 21.1575Z" stroke="#FFEEFF" stroke-width="1.11312" stroke-miterlimit="2.61313" stroke-linecap="round" stroke-linejoin="round"/>
<path fill-rule="evenodd" clip-rule="evenodd" d="M25.3272 21.1575L23.4165 22.2605L21.5063 23.3635V21.1575V18.9509L23.4165 20.0539L25.3272 21.1575Z" fill="#FFEEFF"/>
<path d="M78.8269 41.5997H72.8447V18.2273H79.5132C82.1176 18.2273 83.9481 18.3524 85.0052 18.6087C86.0566 18.8649 86.9499 19.3007 87.6856 19.9164C88.5462 20.6301 89.2055 21.5237 89.6577 22.5911C90.1098 23.6646 90.3334 24.8521 90.3334 26.1598C90.3334 27.5542 90.1098 28.7802 89.6633 29.8372C89.2165 30.8997 88.5575 31.7656 87.6856 32.4469C87.0266 32.9588 86.2475 33.3238 85.3539 33.5474C84.4603 33.7706 83.0275 33.8851 81.0608 33.8851H79.9767H78.8272L78.8269 41.5997ZM78.8269 28.7528H80.0418C81.5727 28.7528 82.6405 28.5406 83.2454 28.1208C83.85 27.7014 84.1553 26.9876 84.1553 25.9743C84.1553 24.9936 83.8557 24.2962 83.2618 23.8821C82.6678 23.468 81.6111 23.2611 80.1018 23.2611H78.8269V28.7528ZM93.4332 18.2273H99.7751V29.5973C99.7751 31.2644 99.8185 32.4686 99.9002 33.1933C99.9873 33.9231 100.129 34.5334 100.336 35.0239C100.576 35.6175 101.006 36.0753 101.611 36.391C102.216 36.7016 102.956 36.8598 103.828 36.8598C104.7 36.8598 105.435 36.7016 106.04 36.391C106.639 36.075 107.07 35.6175 107.32 35.0239C107.527 34.5334 107.669 33.9231 107.756 33.1933C107.838 32.4686 107.881 31.2647 107.881 29.5973V28.0013V18.2276H114.223V30.584C114.223 33.15 114.07 35.0406 113.76 36.2608C113.449 37.4757 112.932 38.5161 112.196 39.3827C111.401 40.3253 110.306 41.0387 108.911 41.5129C107.516 41.9867 105.828 42.221 103.839 42.221C101.834 42.221 100.145 41.9864 98.756 41.5129C97.3666 41.0387 96.2661 40.325 95.46 39.3827C94.7352 38.5161 94.2177 37.4757 93.9017 36.2608C93.5911 35.0406 93.4329 33.15 93.4329 30.584V28.1595V18.2276L93.4332 18.2273ZM119.056 41.5997V18.2273H125.364V28.8456L132.752 18.2273H140.172L131.543 29.6247L140.924 41.5997H132.976L125.365 31.1119V41.5997H119.056ZM142.76 41.5997V18.2273H149.069V28.8456L156.456 18.2273H163.877L155.247 29.6247L164.629 41.5997H156.68L149.069 31.1119V41.5997H142.76ZM172.076 32.8717L169.488 41.5997H164.628L171.215 18.2273H179.196L187.27 41.5997H182.792L179.049 32.6739L175.987 25.3715C175.734 24.5434 175.219 23.8073 175.061 23.163C174.946 23.6447 174.599 24.5418 174.424 25.1574L172.076 32.8717ZM182.792 41.5997L172.991 18.2273H179.196L183.774 31.4788C183.818 31.615 183.934 31.8077 184.07 32.3359C184.201 32.8645 184.736 33.9844 184.948 34.8777C185.117 34.164 185.544 33.0729 185.696 32.501C185.843 31.9237 185.957 31.526 186.028 31.3024L190.676 18.2273H197.442L187.641 41.5997H182.792ZM199.502 41.5997V26.4415L205.941 26.4758V26.3245V41.5997H199.502ZM205.941 22.2305L199.502 22.2063V18.2273H205.941V22.2305ZM211.068 41.5997V18.2273H225.386V23.3592H217.279V27.4127H224.922V32.4139H217.279V36.3693H225.386V41.5997H211.068ZM245.516 18.2273L248.453 29.3414C248.589 29.8372 248.72 30.3604 248.834 30.905C248.954 31.4442 249.074 32.0709 249.205 32.7736C249.363 31.9401 249.499 31.259 249.608 30.7198C249.722 30.1806 249.831 29.7228 249.935 29.3414L252.68 18.2273H259.115L252.506 41.5997H246.6L243.713 31.6187C243.604 31.27 243.43 30.5837 243.184 29.5593C243.081 29.1015 242.994 28.7475 242.928 28.4915C242.879 28.7151 242.803 29.0307 242.705 29.4341C242.46 30.4695 242.274 31.1936 242.149 31.6187L239.305 41.5997H233.383L226.786 18.2273H233.225L235.906 29.4011C236.036 29.9787 236.162 30.5506 236.282 31.1282C236.407 31.7005 236.521 32.2944 236.625 32.899C236.723 32.4523 236.826 31.9838 236.935 31.4936C237.05 31.0031 237.218 30.3057 237.442 29.4014L240.379 18.2276H245.516L245.516 18.2273Z" fill="#FFEEFF"/>
</svg>
