<svg width="15" height="15" viewBox="0 0 15 15" fill="none" xmlns="http://www.w3.org/2000/svg">
<g clip-path="url(#clip0_948_2147)">
<path d="M14.0342 11.0488L11.8171 8.83161L10.1117 8.12705C10.6795 7.31954 10.9838 6.35619 10.9827 5.36902C10.9827 2.71539 8.8238 0.556519 6.17017 0.556519C3.51654 0.556519 1.35767 2.71539 1.35767 5.36902C1.35767 8.02265 3.51654 10.1815 6.17017 10.1815C7.16593 10.1827 8.13724 9.87318 8.94881 9.29621L9.65155 10.997L11.8686 13.2142C12.0108 13.3564 12.1796 13.4692 12.3654 13.5462C12.5512 13.6232 12.7503 13.6628 12.9514 13.6628C13.1525 13.6628 13.3516 13.6232 13.5374 13.5462C13.7232 13.4693 13.892 13.3565 14.0342 13.2143C14.1764 13.0721 14.2892 12.9033 14.3661 12.7175C14.4431 12.5318 14.4827 12.3326 14.4827 12.1315C14.4827 11.9305 14.4431 11.7313 14.3662 11.5455C14.2892 11.3598 14.1764 11.191 14.0342 11.0488ZM2.23267 5.36902C2.23267 3.19792 3.99907 1.43152 6.17017 1.43152C8.34126 1.43152 10.1077 3.19792 10.1077 5.36902C10.1077 7.54011 8.34126 9.30652 6.17017 9.30652C3.99907 9.30652 2.23267 7.54011 2.23267 5.36902ZM13.4155 12.5955C13.2923 12.7184 13.1254 12.7874 12.9514 12.7874C12.7774 12.7874 12.6105 12.7184 12.4874 12.5955L10.3936 10.5018L9.74025 8.92034L11.3217 9.5737L13.4155 11.6675C13.5384 11.7906 13.6074 11.9575 13.6074 12.1315C13.6074 12.3055 13.5384 12.4724 13.4155 12.5955Z" fill="white"/>
</g>
<defs>
<clipPath id="clip0_948_2147">
<rect width="14" height="14" fill="white" transform="translate(0.920166 0.119019)"/>
</clipPath>
</defs>
</svg>
