<svg width="25" height="25" viewBox="0 0 25 25" fill="none" xmlns="http://www.w3.org/2000/svg">
<path d="M17.4351 6.43328C16.7515 5.6529 16.3748 4.65071 16.3751 3.61328H13.2851V16.0133C13.2613 16.6843 12.978 17.3199 12.4949 17.7862C12.0118 18.2525 11.3666 18.5132 10.6951 18.5133C9.27512 18.5133 8.09512 17.3533 8.09512 15.9133C8.09512 14.1933 9.75512 12.9033 11.4651 13.4333V10.2733C8.01512 9.81328 4.99512 12.4933 4.99512 15.9133C4.99512 19.2433 7.75512 21.6133 10.6851 21.6133C13.8251 21.6133 16.3751 19.0633 16.3751 15.9133V9.62328C17.6281 10.5231 19.1325 11.0059 20.6751 11.0033V7.91328C20.6751 7.91328 18.7951 8.00328 17.4351 6.43328Z" fill="white"/>
</svg>
