<svg width="25" height="25" viewBox="0 0 25 25" fill="none" xmlns="http://www.w3.org/2000/svg">
<g id="prime:twitter">
<path id="Vector" d="M20.1649 8.60685V9.12685C20.1742 10.637 19.8836 12.134 19.3099 13.531C18.7363 14.928 17.891 16.1973 16.8232 17.2652C15.7553 18.333 14.4861 19.1783 13.089 19.7519C11.692 20.3256 10.195 20.6161 8.68486 20.6069C6.487 20.6133 4.33407 19.9847 2.48486 18.7969H3.48486C5.29832 18.7969 7.0592 18.1876 8.48486 17.0669C7.6398 17.0593 6.81884 16.7843 6.13976 16.2812C5.46068 15.7782 4.95836 15.073 4.70486 14.2669C4.95951 14.3075 5.217 14.3275 5.47486 14.3269C5.83201 14.3243 6.18768 14.2807 6.53486 14.1969C5.63137 14.0124 4.81935 13.5215 4.23622 12.8072C3.65309 12.0928 3.33467 11.199 3.33486 10.2769C3.89395 10.5853 4.51693 10.7598 5.15486 10.7869C4.59198 10.4145 4.1308 9.90773 3.81302 9.31234C3.49525 8.71695 3.33091 8.05173 3.33486 7.37685C3.33611 6.67433 3.52236 5.98453 3.87486 5.37685C4.88659 6.6245 6.1491 7.64574 7.58062 8.37442C9.01214 9.1031 10.5807 9.52297 12.1849 9.60685C12.1214 9.30421 12.0879 8.99606 12.0849 8.68685C12.0588 7.86373 12.2875 7.05263 12.7396 6.3643C13.1917 5.67598 13.8453 5.14398 14.6111 4.84096C15.3768 4.53793 16.2174 4.47866 17.0181 4.67122C17.8189 4.86378 18.5406 5.29879 19.0849 5.91685C19.9899 5.73506 20.8562 5.39665 21.6449 4.91685C21.3437 5.85001 20.7102 6.64004 19.8649 7.13685C20.6686 7.05 21.4543 6.84093 22.1949 6.51685C21.6465 7.31781 20.9709 8.02378 20.1949 8.60685H20.1649Z" fill="#FFEEFF"/>
</g>
</svg>
